{"title":"Cyborg Girl 2008 720p BR h264 TIME TRAVEL.mkv","uid":15670610,"size":999242916,"categoryP":"video","categoryS":"hd___movies","magnet":"?xt=urn:btih:ce568fd113c53624d262163c2c5f8fa7d2c6eb55&amp;dn=Cyborg+Girl+2008+720p+BR+h264+TIME+TRAVEL.mkv&amp;tr=udp%3A%2F%2Ftracker.leechers-paradise.org%3A6969&amp;tr=udp%3A%2F%2Fzer0day.ch%3A1337&amp;tr=udp%3A%2F%2Fopen.demonii.com%3A1337&amp;tr=udp%3A%2F%2Ftracker.coppersurfer.tk%3A6969&amp;tr=udp%3A%2F%2Fexodus.desync.com%3A6969","seeders":3,"leechers":2,"uploader":"Beastmaster1111","files":1,"time":1472260110,"description":"http://www.imdb.com/title/tt0929860/\r\n\r\nVideo\r\nFormat/Info                 : Advanced Video Codec\r\nDuration                    : 2 h 0 min\r\nBit rate                    : 976 kb/s\r\nWidth                       : 1 280 pixels\r\nHeight                      : 534 pixels\r\nDisplay aspect ratio        : 2.40:1\r\nFrame rate mode             : Constant\r\nFrame rate                  : 23.976 (24000/1001) FPS\r\nBit depth                   : 8 bits\r\nStream size                 : 843 MiB (88%)\r\n\r\nAudio - japanese\r\nFormat                      : AAC\r\nBit rate                    : 126 kb/s\r\nChannel(s)                  : 2 channels\r\nChannel positions           : Front: L R\r\nSampling rate               : 44.1 kHz\r\nStream size                 : 108 MiB (11%)\r\n\r\nText - english\r\nFormat                      : UTF-8\r\nStream size                 : 21.2 KiB (0%)\r\n\r\nquality medium","torrent":{"xt":"urn:btih:ce568fd113c53624d262163c2c5f8fa7d2c6eb55","amp;dn":"Cyborg+Girl+2008+720p+BR+h264+TIME+TRAVEL.mkv","amp;tr":["udp%3A%2F%2Ftracker.leechers-paradise.org%3A6969","udp%3A%2F%2Fzer0day.ch%3A1337","udp%3A%2F%2Fopen.demonii.com%3A1337","udp%3A%2F%2Ftracker.coppersurfer.tk%3A6969","udp%3A%2F%2Fexodus.desync.com%3A6969"],"infoHash":"ce568fd113c53624d262163c2c5f8fa7d2c6eb55","infoHashBuffer":{"type":"Buffer","data":[206,86,143,209,19,197,54,36,210,98,22,60,44,95,143,167,210,198,235,85]},"announce":[],"urlList":[]}}